<svg width="48" height="48" viewBox="0 0 48 48" fill="none" xmlns="http://www.w3.org/2000/svg">
<path d="M6.92879 41.0728C9.86079 44.0008 14.5728 44.0008 24.0008 44.0008C33.4288 44.0008 38.1428 44.0008 41.0708 41.0708C44.0008 38.1448 44.0008 33.4288 44.0008 24.0008C44.0008 14.5728 44.0008 9.85878 41.0708 6.92878C38.1448 4.00078 33.4288 4.00078 24.0008 4.00078C14.5728 4.00078 9.85879 4.00078 6.92879 6.92878C4.00079 9.86078 4.00079 14.5728 4.00079 24.0008C4.00079 33.4288 4.00079 38.1448 6.92879 41.0728Z" fill="#0050B3"/>
<path d="M9.99921 17V15C9.99921 14.2044 10.3153 13.4413 10.8779 12.8787C11.4405 12.3161 12.2036 12 12.9992 12H34.9992C35.7949 12 36.5579 12.3161 37.1205 12.8787C37.6831 13.4413 37.9992 14.2044 37.9992 15V17C37.1337 16.3509 36.0811 16 34.9992 16H12.9992C11.8732 16 10.8352 16.372 9.99921 17ZM9.99921 23V21C9.99921 20.2044 10.3153 19.4413 10.8779 18.8787C11.4405 18.3161 12.2036 18 12.9992 18H34.9992C35.7949 18 36.5579 18.3161 37.1205 18.8787C37.6831 19.4413 37.9992 20.2044 37.9992 21V23C37.1337 22.3509 36.0811 22 34.9992 22H12.9992C11.9174 22 10.8647 22.3509 9.99921 23ZM41.4992 30C41.4992 29.6022 41.3412 29.2206 41.0599 28.9393C40.7786 28.658 40.397 28.5 39.9992 28.5H37.9592V26.5C37.841 25.8006 37.4788 25.1658 36.9369 24.7081C36.395 24.2504 35.7085 23.9995 34.9992 24H12.9992C12.2899 23.9995 11.6034 24.2504 11.0615 24.7081C10.5196 25.1658 10.1574 25.8006 10.0392 26.5V28.5H7.99921C7.60138 28.5 7.21985 28.658 6.93855 28.9393C6.65724 29.2206 6.49921 29.6022 6.49921 30C6.49921 30.3978 6.65724 30.7794 6.93855 31.0607C7.21985 31.342 7.60138 31.5 7.99921 31.5H12.6012C14.3412 31.5 14.7972 31.526 15.1872 31.684L15.3092 31.738C15.6892 31.918 16.0192 32.238 17.1952 33.516L17.2672 33.592L17.4172 33.758C18.2932 34.71 18.9832 35.462 19.8892 35.918C20.0572 36.002 20.2292 36.0773 20.4052 36.144C21.3532 36.504 22.3752 36.502 23.6672 36.5H24.1032C25.3252 36.5 26.2912 36.502 27.1972 36.178C27.3652 36.118 27.5305 36.0493 27.6932 35.972C28.5612 35.562 29.2432 34.878 30.1072 34.012L30.2572 33.864L30.7172 33.404C31.9592 32.162 32.3032 31.854 32.6992 31.69C33.0952 31.526 33.5552 31.5 35.3132 31.5H39.9992C40.397 31.5 40.7786 31.342 41.0599 31.0607C41.3412 30.7794 41.4992 30.3978 41.4992 30Z" fill="#F0F2F5"/>
</svg>
